<?xml version="1.0"?>
<svg version="1.1" xmlns="http://www.w3.org/2000/svg" width="350" height="50" style=""><path fill="#243665" d="M16.232,41.744l1.736,0l0-11.844q0-2.352,1.792-4.144t4.144-1.792q2.296,0,4.144,1.792q1.764,1.764,1.764,4.144l0,11.844l1.792,0l0-11.844q0-2.408,1.792-4.144q1.792-1.792,4.116-1.792q2.352,0,4.144,1.792t1.792,4.144l0,11.844l1.736,0l0-11.844q0-3.192-2.24-5.432t-5.432-2.24q-2.1,0-3.948,1.148q-1.876,1.176-2.688,2.996q-1.092-1.876-2.94-2.996q-1.932-1.148-4.032-1.148q-3.164,0-5.404,2.24q-2.268,2.268-2.268,5.432l0,11.844z M54.19552,24.244l10.556,0l0-2.128l-10.556,0q-2.072,0-3.472,1.624q-1.428,1.652-1.428,4.004q0,2.128,1.428,3.696q1.4,1.596,3.472,1.596l2.8,0l2.856,0q1.26,0,2.24,1.064q0.924,1.12,0.924,2.436q0,1.568-0.91,2.548t-2.254,0.98l-10.556,0l0,1.736l10.556,0q2.1,0,3.5-1.456t1.4-3.808q0-2.128-1.4-3.696q-1.428-1.568-3.5-1.568l-2.856,0l-2.8,0q-1.288,0-2.212-1.12q-0.952-1.036-0.952-2.408q0-1.568,0.91-2.534t2.254-0.966z M77.43104,31.972l2.1,0q2.128,0,3.528-1.4t1.4-3.528q0-1.876-1.4-3.36q-1.484-1.54-3.528-1.54l-8.764,0l-1.736,0l0,19.656l1.736,0l0-9.828l4.564,0l5.964,9.828l2.1,0z M70.76704,30.236l0-6.328l8.764,0q1.288,0,2.268,0.924q0.924,0.924,0.924,2.212q0,1.344-0.924,2.268q-0.98,0.924-2.268,0.924l-8.764,0z"/><path fill="#243665" d="M109.38608,22.06l2.94,0c3.64,0,6.16,1.54,6.16,4.844c0,2.436-1.148,3.92-3.36,4.62c2.632,0.756,4.004,2.324,4.004,4.48c0,4.116-2.744,5.796-7.28,5.796l-8.904,0l0-2.38l2.1-0.84l0-13.16l-2.1-0.84l0-2.38z M109.38608,30.124l1.624,0c2.044,0,3.136-0.868,3.136-2.604c0-1.456-1.036-2.1-2.38-2.1l-2.38,0l0,4.704z M109.38608,38.44l2.324,0c1.96,0,2.996-0.896,2.996-2.436c0-2.044-1.176-2.94-3.696-2.94l-1.624,0l0,5.376z M136.98036,35.164l-9.296,0c0.168,2.24,1.456,3.556,3.388,3.556c2.324,0,4.704-1.316,4.704-1.316l1.204,2.324s-2.8,2.352-6.384,2.352c-4.816,0-7.28-2.8-7.28-7.56c0-4.9,2.772-8.12,7.476-8.12c4.172,0,6.356,2.576,6.356,6.58c0,1.064-0.168,2.1-0.168,2.184z M127.74036,32.56l5.068,0c0-1.596-0.672-2.8-2.296-2.8c-1.568,0-2.548,1.148-2.772,2.8z M150.60264,41.8l-0.504-1.82s-2.156,2.1-4.536,2.1c-2.716,0-4.368-1.596-4.368-4.396c0-3.304,2.492-4.62,6.748-4.62l1.96,0l0-1.54c0-1.428-0.756-2.044-2.156-2.044c-1.428,0-2.464,0.42-2.464,0.42l-0.42,1.764l-2.52,0l-0.196-4.144s3.388-1.12,6.076-1.12c4.256,0,5.88,1.484,5.88,5.544l0,6.916l2.1,0.504l0,2.24z M149.90264,35.444l-1.596,0c-2.184,0-3.052,0.56-3.052,1.82c0,1.064,0.588,1.68,1.652,1.68c1.484,0,2.996-1.624,2.996-1.624l0-1.876z M171.72892,37.236l1.4,2.464c-0.7,0.616-2.884,2.38-6.02,2.38c-4.62,0-7.28-2.856-7.28-7.616c0-4.984,2.8-8.064,7.7-8.064c2.408,0,4.9,0.98,4.9,0.98l-0.14,4.592l-2.52,0l-0.392-1.988s-0.812-0.224-1.932-0.224c-2.016,0-3.276,1.344-3.276,4.144c0,3.052,1.176,4.816,3.5,4.816c1.96,0,3.192-0.98,4.06-1.484z M182.4952,20.1l0,8.204c0.812-0.672,2.632-1.904,4.704-1.904c2.856,0,4.396,1.904,4.396,5.04l0,7.42l1.96,0.7l0,2.24l-7.616,0l0-2.24l1.456-0.672l0-6.776c0-1.4-0.56-2.24-1.848-2.24c-1.568,0-3.052,1.484-3.052,1.484l0,7.504l1.484,0.7l0,2.24l-7.924,0l0-2.24l2.24-0.7l0-15.736l-2.24-0.56l0-2.24z M205.70776,41.8l0-2.38l2.1-0.84l0-13.16l-2.1-0.84l0-2.38l6.44-0.14l2.128,0c4.592,0,7.28,1.904,7.28,5.712c0,2.632-1.26,4.34-3.164,5.292c0.308,0.364,0.728,0.896,1.176,1.82l1.876,3.836l1.904,0.7l0,2.38l-5.18,0l-2.352-5.18c-0.952-2.128-1.204-2.576-2.688-2.576l-0.98,0l0,4.536l2.016,0.84l0,2.38l-8.456,0z M212.14776,31.104l1.596,0c2.212,0,3.5-1.064,3.5-2.94c0-1.596-1.064-2.744-2.8-2.744l-2.296,0l0,5.684z M240.21804,35.164l-9.296,0c0.168,2.24,1.456,3.556,3.388,3.556c2.324,0,4.704-1.316,4.704-1.316l1.204,2.324s-2.8,2.352-6.384,2.352c-4.816,0-7.28-2.8-7.28-7.56c0-4.9,2.772-8.12,7.476-8.12c4.172,0,6.356,2.576,6.356,6.58c0,1.064-0.168,2.1-0.168,2.184z M230.97804,32.56l5.068,0c0-1.596-0.672-2.8-2.296-2.8c-1.568,0-2.548,1.148-2.772,2.8z M246.89632,36.9l0.224,1.82s0.98,0.28,2.352,0.28c1.54,0,2.296-0.476,2.296-1.372c0-2.296-7.476-1.456-7.476-6.44c0-3.5,2.8-4.788,5.768-4.788c2.52,0,5.208,0.84,5.208,0.84l-0.112,4.2l-2.38,0l-0.42-1.68s-0.812-0.28-1.932-0.28c-1.204,0-1.932,0.504-1.932,1.428c0,2.268,7.476,1.288,7.476,6.132c0,3.22-2.604,5.04-6.44,5.04c-2.66,0-5.152-0.616-5.152-0.616l0-4.564l2.52,0z M267.4346,26.4c4.536,0,7.056,2.744,7.056,7.56c0,5.04-2.94,8.12-7.476,8.12c-4.564,0-7.14-2.38-7.14-7.7c0-5.04,2.996-7.98,7.56-7.98z M267.2946,29.76c-2.044,0-3.08,1.12-3.08,4.48c0,3.08,0.896,4.48,2.94,4.48c2.016,0,2.996-1.26,2.996-4.62c0-2.856-0.84-4.34-2.856-4.34z M284.27688,26.68l0.252,1.932s2.016-2.212,3.892-2.212c1.54,0,2.604,0.504,2.604,0.504l-0.224,5.376l-2.52,0l-0.42-2.38c-1.624,0-3.024,1.568-3.024,1.568l0,7.392l2.8,0.7l0,2.24l-9.24,0l0-2.24l2.24-0.7l0-9.1l-2.24-0.7l0-2.24z M304.03116,38.216l1.008,2.128c-1.372,1.008-2.94,1.736-4.76,1.736c-3.22,0-4.144-2.24-4.144-5.46l0-6.44l-2.604,0l0-2.716l2.604-0.364l0-3.864l4.2-0.756l0,4.62l3.92,0l0,3.08l-3.92,0l0,6.16c0,1.792,0.308,2.52,1.484,2.52c0.756,0,1.848-0.448,2.212-0.644z M310.84944,36.9l0.224,1.82s0.98,0.28,2.352,0.28c1.54,0,2.296-0.476,2.296-1.372c0-2.296-7.476-1.456-7.476-6.44c0-3.5,2.8-4.788,5.768-4.788c2.52,0,5.208,0.84,5.208,0.84l-0.112,4.2l-2.38,0l-0.42-1.68s-0.812-0.28-1.932-0.28c-1.204,0-1.932,0.504-1.932,1.428c0,2.268,7.476,1.288,7.476,6.132c0,3.22-2.604,5.04-6.44,5.04c-2.66,0-5.152-0.616-5.152-0.616l0-4.564l2.52,0z"/></svg>
