<?xml version="1.0"?>
<svg version="1.1" xmlns="http://www.w3.org/2000/svg" width="330" height="45"><path fill="#ff9933" d="M16.092,39.244l1.736,0l0-11.844q0-2.352,1.792-4.144t4.144-1.792q2.296,0,4.144,1.792q1.764,1.764,1.764,4.144l0,11.844l1.792,0l0-11.844q0-2.408,1.792-4.144q1.792-1.792,4.116-1.792q2.352,0,4.144,1.792t1.792,4.144l0,11.844l1.736,0l0-11.844q0-3.192-2.24-5.432t-5.432-2.24q-2.1,0-3.948,1.148q-1.876,1.176-2.688,2.996q-1.092-1.876-2.94-2.996q-1.932-1.148-4.032-1.148q-3.164,0-5.404,2.24q-2.268,2.268-2.268,5.432l0,11.844z M53.88752,21.744l10.556,0l0-2.128l-10.556,0q-2.072,0-3.472,1.624q-1.428,1.652-1.428,4.004q0,2.128,1.428,3.696q1.4,1.596,3.472,1.596l2.8,0l2.856,0q1.26,0,2.24,1.064q0.924,1.12,0.924,2.436q0,1.568-0.91,2.548t-2.254,0.98l-10.556,0l0,1.736l10.556,0q2.1,0,3.5-1.456t1.4-3.808q0-2.128-1.4-3.696q-1.428-1.568-3.5-1.568l-2.856,0l-2.8,0q-1.288,0-2.212-1.12q-0.952-1.036-0.952-2.408q0-1.568,0.91-2.534t2.254-0.966z M76.95504,29.472l2.1,0q2.128,0,3.528-1.4t1.4-3.528q0-1.876-1.4-3.36q-1.484-1.54-3.528-1.54l-8.764,0l-1.736,0l0,19.656l1.736,0l0-9.828l4.564,0l5.964,9.828l2.1,0z M70.29104,27.736l0-6.328l8.764,0q1.288,0,2.268,0.924q0.924,0.924,0.924,2.212q0,1.344-0.924,2.268q-0.98,0.924-2.268,0.924l-8.764,0z"/><path fill="#ff9933" d="M104.71056,36.3l0-16.2l-2.55-0.6l0-1.65l5.55-0.15l3.45,0c3.75,0,6.45,1.65,6.45,5.25c0,2.7-1.38,4.23-3.9,4.86c3.15,0.72,4.65,2.49,4.65,4.89c0,4.2-2.7,6-7.65,6l-8.55,0l0-1.8z M107.71056,26.7l2.25,0c2.7,0,4.5-1.05,4.5-3.45c0-2.1-1.5-3.15-3.45-3.15l-3.3,0l0,6.6z M107.71056,36.3l3.15,0c2.85,0,4.35-1.2,4.35-3.45c0-3-1.95-3.9-5.25-3.9l-2.25,0l0,7.35z M136.61856,31.2l-10.35,0c0,3.3,1.77,5.4,4.35,5.4c3,0,5.04-1.65,5.04-1.65l1.05,1.56s-2.79,2.49-6.39,2.49c-4.8,0-7.2-3.15-7.2-8.1c0-4.8,3-8.4,7.35-8.4s6.3,2.55,6.3,7.05c0,0.75-0.15,1.59-0.15,1.65z M126.38856,28.95l7.2,0c0-2.25-0.87-4.11-3.27-4.11s-3.75,1.86-3.93,4.11z M142.57656,27.45l-0.15-3.75s3.3-1.2,5.85-1.2c3.48,0,5.55,1.2,5.55,4.65l0,9.15l2.4,0.6l0,1.65l-4.65,0.15l-0.63-2.1c-1.02,1.02-2.82,2.4-4.92,2.4c-2.85,0-4.5-1.65-4.5-4.5c0-3.45,2.7-4.65,6.9-4.65l2.4,0l0-2.4c0-1.8-1.05-2.7-2.85-2.7s-3.03,0.45-3.03,0.45l-0.42,2.25l-1.95,0z M150.82656,31.8l-2.1,0c-3,0-4.14,0.75-4.14,2.55c0,1.35,0.84,2.25,2.19,2.25c2.25,0,4.05-2.4,4.05-2.4l0-2.4z M171.18456,27.75l-0.45-2.55s-1.2-0.3-2.7-0.3c-2.85,0-4.5,1.8-4.5,5.55c0,4.05,1.8,6.15,4.65,6.15s4.65-1.8,4.65-1.8l1.05,1.8s-2.7,2.4-6,2.4c-4.95,0-7.5-3.15-7.5-8.25c0-4.8,3-8.25,7.8-8.25c2.7,0,5.1,1.2,5.1,1.2l-0.15,4.05l-1.95,0z M182.84256,15.6l0,9.06c0.93-0.78,3.03-2.16,5.25-2.16c3.3,0,4.8,2.1,4.8,5.4l0,8.4l2.25,0.75l0,1.65l-7.2,0l0-1.65l1.95-0.72l0-8.13c0-2.1-0.66-3.15-2.61-3.15c-2.55,0-4.44,2.4-4.44,2.4l0,8.85l1.95,0.75l0,1.65l-7.5,0l0-1.65l2.55-0.75l0-18.3l-2.55-0.6l0-1.65z M210.80856,36.3l0-16.2l-2.55-0.6l0-1.65l5.7-0.15l3.3,0c4.23,0,6.75,2.04,6.75,5.4c0,2.91-1.32,4.89-3.9,5.85c0.48,0.42,1.02,1.2,1.8,2.7l2.37,4.77l2.13,0.48l0,1.8l-4.5,0l-2.55-5.55c-1.41-3-2.07-3.6-4.05-3.6l-1.35,0l0,6.75l2.55,0.6l0,1.8l-8.25,0l0-1.8z M213.95856,27.3l2.25,0c2.94,0,4.65-1.38,4.65-3.75c0-2.01-1.56-3.45-3.75-3.45l-3.15,0l0,7.2z M243.31656,31.2l-10.35,0c0,3.3,1.77,5.4,4.35,5.4c3,0,5.04-1.65,5.04-1.65l1.05,1.56s-2.79,2.49-6.39,2.49c-4.8,0-7.2-3.15-7.2-8.1c0-4.8,3-8.4,7.35-8.4s6.3,2.55,6.3,7.05c0,0.75-0.15,1.59-0.15,1.65z M233.08656,28.95l7.2,0c0-2.25-0.87-4.11-3.27-4.11s-3.75,1.86-3.93,4.11z M250.35456,33.9l0.33,2.58s0.9,0.27,2.52,0.27c1.8,0,3.39-0.51,3.39-2.37c0-3.24-8.37-1.74-8.37-7.2c0-3.12,2.4-4.68,5.49-4.68c2.37,0,5.13,0.9,5.13,0.9l-0.09,4.05l-1.95,0l-0.48-2.34s-0.93-0.36-2.43-0.36c-1.53,0-2.67,0.48-2.67,2.01c0,3.21,8.37,1.98,8.37,7.11c0,3.45-3,5.13-6.6,5.13c-2.76,0-4.74-0.66-4.74-0.66l0-4.44l2.1,0z M271.85256,22.5c4.5,0,7.05,3.15,7.05,7.95c0,5.1-3,8.55-7.5,8.55s-7.2-2.7-7.2-8.1c0-5.1,3.15-8.4,7.65-8.4z M271.70256,24.9c-3,0-4.35,1.95-4.35,5.85c0,3.6,1.2,5.85,4.2,5.85s4.2-2.1,4.2-6c0-3.3-1.05-5.7-4.05-5.7z M288.31056,22.8l0.27,2.19c0.75-0.84,2.49-2.49,4.53-2.49c1.5,0,2.7,0.45,2.7,0.45l-0.15,4.35l-1.95,0l-0.45-2.25c-2.25,0-3.69,1.47-4.35,2.34l0,8.91l3,0.75l0,1.65l-8.55,0l0-1.65l2.55-0.75l0-11.1l-2.55-0.6l0-1.65z M309.11856,22.95l0,2.25l-4.35,0l0,9.63c0,1.38,0.66,1.83,1.5,1.83c0.72,0,1.56-0.33,2.34-0.75l0.81,1.59c-1.35,0.99-2.7,1.5-4.2,1.5c-1.8,0-3.45-0.99-3.45-4.35l0-9.45l-3,0l0-1.95l3-0.3l0-3.78l3-0.6l0,4.38l4.35,0z M315.55656,33.9l0.33,2.58s0.9,0.27,2.52,0.27c1.8,0,3.39-0.51,3.39-2.37c0-3.24-8.37-1.74-8.37-7.2c0-3.12,2.4-4.68,5.49-4.68c2.37,0,5.13,0.9,5.13,0.9l-0.09,4.05l-1.95,0l-0.48-2.34s-0.93-0.36-2.43-0.36c-1.53,0-2.67,0.48-2.67,2.01c0,3.21,8.37,1.98,8.37,7.11c0,3.45-3,5.13-6.6,5.13c-2.76,0-4.74-0.66-4.74-0.66l0-4.44l2.1,0z"/></svg>
